<svg width="15" height="10" viewBox="0 0 15 10" fill="none" xmlns="http://www.w3.org/2000/svg">
<path d="M10.2273 4.28571C11.3591 4.28571 12.2659 3.32857 12.2659 2.14286C12.2659 0.957143 11.3591 0 10.2273 0C9.09545 0 8.18182 0.957143 8.18182 2.14286C8.18182 3.32857 9.09545 4.28571 10.2273 4.28571ZM4.77273 4.28571C5.90455 4.28571 6.81136 3.32857 6.81136 2.14286C6.81136 0.957143 5.90455 0 4.77273 0C3.64091 0 2.72727 0.957143 2.72727 2.14286C2.72727 3.32857 3.64091 4.28571 4.77273 4.28571ZM4.77273 5.71429C3.18409 5.71429 0 6.55 0 8.21429V9.28571C0 9.67857 0.306818 10 0.681818 10H8.86364C9.23864 10 9.54545 9.67857 9.54545 9.28571V8.21429C9.54545 6.55 6.36136 5.71429 4.77273 5.71429ZM10.2273 5.71429C10.0295 5.71429 9.80455 5.72857 9.56591 5.75C9.57955 5.75714 9.58636 5.77143 9.59318 5.77857C10.3705 6.37143 10.9091 7.16429 10.9091 8.21429V9.28571C10.9091 9.53571 10.8614 9.77857 10.7864 10H14.3182C14.6932 10 15 9.67857 15 9.28571V8.21429C15 6.55 11.8159 5.71429 10.2273 5.71429Z" fill="white"/>
</svg>
