<svg width="150" height="150" viewBox="0 0 150 150" fill="none" xmlns="http://www.w3.org/2000/svg">
<rect width="150" height="150" rx="20" fill="black"/>
<mask id="mask0_2_2" style="mask-type:luminance" maskUnits="userSpaceOnUse" x="21" y="56" width="109" height="38">
<path d="M130 56H21V93.4427H130V56Z" fill="white"/>
</mask>
<g mask="url(#mask0_2_2)">
<path d="M26.7145 56V75.4468H27.7906C28.1027 75.4601 28.4141 75.4094 28.7054 75.298C28.9814 75.1564 29.2165 74.9479 29.3888 74.6922L35.3077 67.4959C35.5297 67.1995 35.8097 66.9502 36.1309 66.7625C36.4926 66.5831 36.8943 66.4971 37.2986 66.5127H42.5234L35.114 75.2183C34.651 75.8521 34.0704 76.3932 33.4029 76.8128C33.7255 77.0402 34.0167 77.3082 34.2692 77.61C34.5221 77.9182 34.7642 78.2424 35.001 78.5932L42.9108 89.9616H37.7506C37.3573 89.969 36.9668 89.8948 36.6045 89.7437C36.2517 89.5748 35.9645 89.2968 35.7866 88.9518L29.7223 80.0654C29.575 79.7823 29.3492 79.5463 29.0713 79.3851C28.74 79.2616 28.3864 79.2073 28.0328 79.2257H26.7145V89.9616H21V56H26.7145Z" fill="white"/>
<path d="M79.5382 71.4714C79.3937 71.6599 79.2256 71.8296 79.0378 71.9763C78.8293 72.1114 78.5816 72.1749 78.3329 72.1571C78.0282 72.1537 77.7311 72.0632 77.4774 71.8966C77.2029 71.7212 76.8693 71.5193 76.4819 71.3014C76.0451 71.0559 75.5834 70.8564 75.1044 70.7061C74.4642 70.5166 73.7977 70.4286 73.1296 70.4457C72.2213 70.422 71.3194 70.6038 70.493 70.9771C69.7431 71.3271 69.0937 71.8569 68.6043 72.5184C68.0744 73.2501 67.6942 74.077 67.4851 74.9526C67.2252 76.0102 67.1003 77.0958 67.1138 78.184C67.0991 79.3057 67.2348 80.4245 67.5174 81.5111C67.7434 82.396 68.1399 83.2296 68.685 83.9665C69.1686 84.6108 69.804 85.1289 70.5361 85.4759C71.3025 85.8348 72.1416 86.0165 72.9898 86.0074C73.7416 86.0328 74.4916 85.9192 75.2013 85.6726C75.7014 85.4843 76.178 85.24 76.6218 84.9444C77.0092 84.6787 77.3428 84.4129 77.628 84.211C77.9018 83.9963 78.2416 83.88 78.5912 83.8815C78.7965 83.8709 79.0009 83.9146 79.1835 84.008C79.366 84.1015 79.52 84.2412 79.6297 84.4129L81.2654 86.4644C80.6666 87.1654 79.9752 87.7839 79.21 88.3034C78.4922 88.7819 77.7213 89.1778 76.9123 89.4832C76.1197 89.779 75.2971 89.9893 74.4587 90.1104C73.6267 90.2312 72.7868 90.2916 71.9459 90.2911C70.5274 90.2979 69.1222 90.0231 67.8133 89.4832C66.5207 88.9456 65.3608 88.1389 64.4126 87.1182C63.3966 86.0134 62.6136 84.7198 62.1096 83.3127C61.5212 81.6646 61.2351 79.926 61.2648 78.1787C61.2485 76.5542 61.503 74.9381 62.0181 73.3953C62.4835 71.9886 63.2342 70.6901 64.2243 69.5793C65.22 68.4907 66.445 67.6308 67.8133 67.0601C69.3835 66.4266 71.0679 66.1156 72.7637 66.146C74.3607 66.1127 75.9478 66.4003 77.429 66.991C78.7747 67.5612 79.9955 68.3843 81.0233 69.4146L79.5382 71.4714Z" fill="white"/>
<path d="M91.7099 56V75.4468H92.7861C93.0982 75.461 93.4098 75.4103 93.7008 75.298C93.9779 75.158 94.2134 74.9491 94.3842 74.6922L100.303 67.4959C100.521 67.1982 100.8 66.9484 101.121 66.7625C101.483 66.5831 101.884 66.4971 102.289 66.5127H107.519L100.099 75.2183C99.6353 75.8536 99.0525 76.3949 98.3822 76.8128C98.7064 77.0401 98.9994 77.3081 99.2538 77.61C99.5131 77.9251 99.7556 78.2532 99.9802 78.5932L107.906 89.9616H102.746C102.349 89.9705 101.955 89.8963 101.589 89.7437C101.239 89.5732 100.954 89.2954 100.777 88.9518L94.7178 80.0654C94.5632 79.7805 94.33 79.5446 94.0452 79.3851C93.712 79.2618 93.3566 79.2075 93.0013 79.2257H91.7099V89.9616H85.9954V56H91.7099Z" fill="white"/>
<path d="M111.329 69.7813C114.003 67.3269 117.537 65.9932 121.186 66.0609C122.461 66.0418 123.725 66.2712 124.909 66.7359C125.96 67.1577 126.907 67.7975 127.686 68.612C128.457 69.4374 129.044 70.4133 129.408 71.4767C129.812 72.654 130.012 73.8902 130 75.1333V89.9616H127.406C126.977 89.9836 126.549 89.9015 126.158 89.7224C125.815 89.4924 125.568 89.1466 125.464 88.7498L124.959 87.0597C124.398 87.5579 123.81 88.0263 123.199 88.4628C122.64 88.8591 122.043 89.2008 121.417 89.4832C120.781 89.7588 120.118 89.969 119.438 90.1104C118.672 90.2605 117.894 90.3336 117.113 90.3283C116.172 90.3361 115.235 90.1999 114.336 89.9244C113.527 89.6804 112.778 89.2732 112.136 88.7285C111.512 88.1805 111.022 87.4987 110.705 86.7355C110.338 85.8593 110.155 84.9194 110.166 83.9718C110.169 83.3696 110.27 82.7717 110.467 82.2019C110.685 81.5852 111.019 81.0152 111.453 80.5225C111.966 79.9379 112.562 79.4296 113.222 79.0131C114.061 78.4883 114.965 78.0737 115.913 77.78C117.117 77.3942 118.352 77.108 119.604 76.9243C121.208 76.6845 122.825 76.5495 124.447 76.5205V75.1333C124.447 73.5636 124.107 72.4032 123.425 71.6521C123.049 71.2626 122.59 70.9593 122.083 70.7637C121.575 70.5681 121.03 70.4849 120.487 70.52C119.708 70.4987 118.932 70.6065 118.189 70.8389C117.629 71.0272 117.089 71.2674 116.575 71.5565C116.112 71.8275 115.693 72.0879 115.31 72.2793C114.926 72.4937 114.492 72.6038 114.051 72.5981C113.687 72.6118 113.328 72.5032 113.034 72.2898C112.767 72.0939 112.539 71.8506 112.362 71.5724L111.329 69.7813ZM124.425 79.9485C123.029 79.9995 121.638 80.1416 120.261 80.3736C119.334 80.523 118.43 80.7873 117.571 81.1603C116.992 81.3991 116.488 81.7862 116.112 82.2817C115.823 82.6898 115.669 83.1762 115.671 83.6742C115.631 84.0732 115.692 84.4758 115.847 84.8464C116.001 85.2171 116.246 85.5446 116.559 85.8001C117.245 86.256 118.062 86.4815 118.889 86.4432C119.938 86.468 120.979 86.2515 121.929 85.8107C122.874 85.3262 123.725 84.6801 124.442 83.9027L124.425 79.9485Z" fill="white"/>
<path d="M53.99 85.1571V87.1873C53.99 87.6806 53.7916 88.1538 53.4384 88.5026C53.0852 88.8515 52.6062 89.0475 52.1067 89.0475H51.6063C51.6055 88.2458 51.8274 87.4591 52.2476 86.7732C52.6679 86.0873 53.2706 85.5283 53.99 85.1571Z" fill="white"/>
<path d="M55.4374 84.6998V87.7771C55.4374 88.0651 55.3799 88.3503 55.2682 88.6163C55.1564 88.8823 54.9927 89.1239 54.7863 89.3273C54.5798 89.5307 54.3348 89.6919 54.0652 89.8016C53.7956 89.9113 53.5067 89.9675 53.2152 89.9668H51.7031C51.6379 89.6664 51.6055 89.3599 51.6063 89.0526C51.6055 88.2509 51.8274 87.4642 52.2476 86.7784C52.6679 86.0924 53.2706 85.5334 53.99 85.1622C54.4409 84.9244 54.931 84.7678 55.4374 84.6998Z" fill="white"/>
<path d="M51.6708 56.9355H51.5739C50.4745 56.9355 49.4201 57.3664 48.6422 58.1338C47.8644 58.9011 47.4267 59.942 47.4253 61.0279V61.182C47.4253 62.2688 47.8624 63.311 48.6403 64.0795C49.4184 64.848 50.4736 65.2797 51.5739 65.2797H51.6708C52.216 65.2804 52.756 65.1749 53.26 64.9693C53.764 64.7637 54.222 64.462 54.6078 64.0814C54.9936 63.7008 55.2996 63.2488 55.5085 62.7513C55.7173 62.2538 55.8248 61.7206 55.8248 61.182V61.0279C55.8241 60.4897 55.7161 59.957 55.5069 59.4601C55.2978 58.9632 54.9916 58.5119 54.6059 58.1319C54.2201 57.7519 53.7624 57.4506 53.2588 57.2453C52.7552 57.0401 52.2155 56.9348 51.6708 56.9355ZM49.201 59.9383C49.1999 59.8002 49.2404 59.6648 49.3175 59.5495C49.3945 59.4342 49.5046 59.3442 49.6336 59.2908C49.7626 59.2374 49.9048 59.2232 50.042 59.2499C50.1792 59.2766 50.3054 59.343 50.4042 59.4407C50.5031 59.5384 50.5704 59.6629 50.5974 59.7985C50.6245 59.934 50.6101 60.0745 50.556 60.2019C50.502 60.3293 50.4108 60.438 50.294 60.5141C50.1773 60.5902 50.0404 60.6303 49.9005 60.6292C49.7154 60.6279 49.5383 60.5546 49.4074 60.4253C49.2765 60.2961 49.2024 60.1211 49.201 59.9383ZM53.1505 62.6861L51.9291 63.6959C51.8364 63.7636 51.7241 63.8002 51.6089 63.8002C51.4936 63.8002 51.3814 63.7636 51.2887 63.6959L50.0565 62.6861C49.9794 62.6201 49.9244 62.5327 49.8985 62.4353C49.8727 62.338 49.8772 62.2351 49.9115 62.1403C49.9458 62.0455 50.0083 61.9632 50.0909 61.9041C50.1734 61.845 50.2721 61.8119 50.3739 61.8091H52.8277C52.9314 61.8079 53.033 61.8385 53.1184 61.8968C53.2037 61.9551 53.2686 62.0381 53.3041 62.1345C53.3396 62.2308 53.3438 62.3356 53.3163 62.4344C53.2888 62.5333 53.2308 62.6212 53.1505 62.6861ZM53.3119 60.6292C53.1722 60.6292 53.0358 60.5883 52.9198 60.5115C52.8037 60.4348 52.7134 60.3257 52.6602 60.1982C52.607 60.0707 52.5934 59.9304 52.621 59.7952C52.6486 59.66 52.7163 59.536 52.8154 59.4388C52.9145 59.3417 53.0406 59.2758 53.1777 59.2495C53.3148 59.2232 53.4567 59.2378 53.5854 59.2913C53.7142 59.3448 53.8238 59.4349 53.9006 59.5501C53.9774 59.6653 54.0179 59.8004 54.0168 59.9383C54.0168 60.0295 53.9986 60.1198 53.963 60.204C53.9276 60.2881 53.8756 60.3645 53.81 60.4288C53.7445 60.493 53.6667 60.5438 53.5813 60.5782C53.4957 60.6126 53.4042 60.6299 53.3119 60.6292Z" fill="white"/>
<path d="M53.9901 79.0131V82.6271C54.4171 82.7848 54.7848 83.0681 55.0437 83.4388C55.3026 83.8095 55.44 84.2496 55.4376 84.6999C54.9367 84.7698 54.4521 84.9263 54.0063 85.1622C53.2868 85.5335 52.6841 86.0925 52.2639 86.7784C51.8436 87.4643 51.6218 88.2509 51.6225 89.0527C51.6217 89.36 51.6541 89.6664 51.7194 89.9668H49.6962C49.4048 89.9676 49.1163 89.9114 48.847 89.8016C48.5777 89.6918 48.333 89.5306 48.127 89.327C47.921 89.1236 47.7578 88.8819 47.6466 88.616C47.5354 88.35 47.4786 88.0649 47.4793 87.7772V84.6999C47.4799 84.2565 47.6165 83.8236 47.871 83.4583C48.1255 83.0932 48.4861 82.8126 48.9052 82.6537V79.0131C48.2279 78.8717 47.6203 78.5046 47.1843 77.9734C46.7484 77.4421 46.5106 76.7791 46.5107 76.0952V68.8831C46.5107 68.0941 46.8273 67.3373 47.3911 66.7785C47.9549 66.2196 48.7199 65.9043 49.5186 65.9014H53.3552C54.1558 65.9014 54.9235 66.2155 55.4897 66.7748C56.0558 67.3339 56.3738 68.0923 56.3738 68.8831V76.0952C56.3745 76.7776 56.1382 77.4395 55.7044 77.9705C55.2706 78.5015 54.6654 78.8695 53.9901 79.0131Z" fill="white"/>
<path d="M60.5009 89.0474C60.508 90.1371 60.1046 91.1904 59.3691 92.0026C58.6336 92.8149 57.6185 93.3278 56.5214 93.4418C55.4242 93.5558 54.3233 93.2627 53.4327 92.6194C52.5422 91.9762 51.9257 91.0289 51.7031 89.9615C51.6379 89.6611 51.6055 89.3547 51.6063 89.0474C51.6055 88.2456 51.8274 87.459 52.2476 86.7731C52.6679 86.0872 53.2706 85.5282 53.99 85.1569C54.4412 84.921 54.9314 84.7663 55.4374 84.6999C55.6479 84.6723 55.86 84.6581 56.0724 84.6573C57.2484 84.6616 58.3748 85.126 59.2047 85.9488C60.0348 86.7716 60.5009 87.8858 60.5009 89.0474Z" fill="#FA4848"/>
</g>
</svg>
