<svg width="131" height="45" viewBox="0 0 131 45" fill="none" xmlns="http://www.w3.org/2000/svg">
<g clip-path="url(#clip0_10_75)">
<path d="M6.86785 0V23.3719H8.16123C8.53625 23.3878 8.91054 23.3269 9.2606 23.193C9.59227 23.0228 9.87483 22.7722 10.0819 22.4649L17.1955 13.8162C17.4623 13.46 17.7988 13.1603 18.1849 12.9347C18.6195 12.7191 19.1023 12.6158 19.5882 12.6345H25.8676L16.9627 23.0972C16.4063 23.859 15.7085 24.5093 14.9062 25.0135C15.2939 25.2868 15.6439 25.6089 15.9474 25.9716C16.2513 26.3421 16.5423 26.7317 16.8269 27.1533L26.3332 40.8162H20.1315C19.6588 40.8251 19.1895 40.7359 18.754 40.5543C18.33 40.3514 17.9848 40.0172 17.771 39.6026L10.4828 28.9226C10.3057 28.5824 10.0344 28.2988 9.70035 28.105C9.3022 27.9566 8.87721 27.8914 8.45224 27.9134H6.86785V40.8162H0V0H6.86785Z" fill="white"/>
<path d="M70.3533 18.5941C70.1796 18.8206 69.9775 19.0245 69.7519 19.2009C69.5013 19.3632 69.2036 19.4395 68.9047 19.4181C68.5385 19.4141 68.1814 19.3053 67.8765 19.1051C67.5466 18.8943 67.1457 18.6516 66.6801 18.3897C66.1551 18.0947 65.6002 17.8549 65.0246 17.6743C64.2552 17.4465 63.4541 17.3408 62.6512 17.3613C61.5595 17.3329 60.4756 17.5514 59.4824 18C58.5811 18.4206 57.8007 19.0574 57.2125 19.8524C56.5756 20.7318 56.1187 21.7255 55.8674 22.7779C55.555 24.0489 55.405 25.3536 55.4212 26.6615C55.4035 28.0096 55.5666 29.3542 55.9062 30.6601C56.1779 31.7236 56.6544 32.7255 57.3095 33.6111C57.8907 34.3854 58.6543 35.0081 59.5342 35.4251C60.4553 35.8565 61.4637 36.0749 62.4831 36.0639C63.3867 36.0944 64.2881 35.9579 65.141 35.6615C65.7421 35.4353 66.3149 35.1416 66.8482 34.7864C67.3138 34.467 67.7148 34.1476 68.0575 33.9049C68.3866 33.6469 68.7949 33.5072 69.2151 33.5089C69.4618 33.4962 69.7075 33.5487 69.9269 33.661C70.1463 33.7733 70.3314 33.9412 70.4632 34.1476L72.4291 36.6132C71.7094 37.4556 70.8785 38.199 69.9588 38.8233C69.0961 39.3984 68.1696 39.8742 67.1974 40.2413C66.2448 40.5968 65.2561 40.8495 64.2485 40.9951C63.2486 41.1402 62.2392 41.2128 61.2285 41.2122C59.5238 41.2204 57.8349 40.8902 56.2619 40.2413C54.7084 39.5952 53.3143 38.6257 52.1748 37.3989C50.9537 36.0712 50.0127 34.5164 49.407 32.8254C48.6998 30.8446 48.356 28.7551 48.3917 26.6551C48.372 24.7028 48.6779 22.7605 49.297 20.9063C49.8563 19.2156 50.7585 17.6551 51.9485 16.3201C53.1451 15.0117 54.6174 13.9783 56.2619 13.2924C58.149 12.5311 60.1733 12.1573 62.2114 12.1938C64.1307 12.1538 66.0382 12.4994 67.8183 13.2094C69.4357 13.8946 70.9029 14.8839 72.1381 16.1221L70.3533 18.5941Z" fill="white"/>
<path d="M84.9816 0V23.3719H86.275C86.6501 23.3889 87.0246 23.328 87.3744 23.193C87.7074 23.0247 87.9904 22.7737 88.1957 22.4649L95.3093 13.8162C95.5717 13.4584 95.9064 13.1582 96.2922 12.9347C96.7268 12.7191 97.2096 12.6158 97.6955 12.6345H103.981L95.0635 23.0972C94.5066 23.8607 93.8062 24.5113 93.0006 25.0135C93.3903 25.2867 93.7424 25.6088 94.0482 25.9716C94.3598 26.3503 94.6512 26.7447 94.9212 27.1533L104.447 40.8162H98.2452C97.7682 40.8269 97.2944 40.7377 96.8548 40.5543C96.4338 40.3495 96.0912 40.0156 95.8783 39.6026L88.5966 28.9226C88.4108 28.5802 88.1305 28.2967 87.7883 28.105C87.3878 27.9568 86.9607 27.8916 86.5337 27.9134H84.9816V40.8162H78.1138V0H84.9816Z" fill="white"/>
<path d="M108.56 16.5628C111.774 13.6131 116.021 12.0102 120.407 12.0916C121.939 12.0686 123.459 12.3443 124.882 12.9028C126.145 13.4097 127.283 14.1787 128.219 15.1576C129.146 16.1495 129.851 17.3224 130.289 18.6005C130.774 20.0154 131.015 21.5011 131 22.9951V40.8162H127.883C127.367 40.8427 126.852 40.744 126.383 40.5288C125.97 40.2523 125.673 39.8367 125.549 39.3599L124.941 37.3286C124.267 37.9274 123.561 38.4903 122.826 39.0149C122.154 39.4912 121.437 39.9019 120.685 40.2413C119.92 40.5725 119.123 40.8251 118.306 40.9951C117.386 41.1755 116.45 41.2633 115.512 41.2569C114.381 41.2663 113.255 41.1026 112.175 40.7715C111.202 40.4783 110.302 39.9889 109.53 39.3343C108.78 38.6756 108.191 37.8563 107.81 36.939C107.37 35.886 107.15 34.7563 107.163 33.6175C107.166 32.8937 107.288 32.1752 107.525 31.4904C107.786 30.7492 108.188 30.0641 108.709 29.472C109.326 28.7694 110.043 28.1585 110.836 27.6579C111.844 27.0272 112.931 26.529 114.07 26.176C115.517 25.7123 117.001 25.3683 118.506 25.1476C120.433 24.8593 122.377 24.6971 124.326 24.6622V22.9951C124.326 21.1086 123.917 19.714 123.098 18.8112C122.646 18.3431 122.095 17.9786 121.485 17.7435C120.875 17.5084 120.22 17.4085 119.567 17.4507C118.631 17.425 117.698 17.5546 116.805 17.8339C116.132 18.0602 115.483 18.3489 114.865 18.6963C114.309 19.022 113.805 19.335 113.345 19.565C112.884 19.8227 112.362 19.955 111.832 19.9482C111.394 19.9647 110.963 19.8341 110.61 19.5777C110.289 19.3422 110.015 19.0498 109.802 18.7154L108.56 16.5628ZM124.3 28.7821C122.622 28.8435 120.95 29.0142 119.295 29.2931C118.181 29.4726 117.095 29.7903 116.062 30.2385C115.366 30.5255 114.761 30.9908 114.309 31.5863C113.962 32.0767 113.776 32.6613 113.779 33.2598C113.731 33.7394 113.804 34.2232 113.99 34.6686C114.176 35.1141 114.47 35.5077 114.846 35.8148C115.671 36.3627 116.653 36.6337 117.646 36.5877C118.907 36.6175 120.158 36.3573 121.3 35.8276C122.436 35.2452 123.458 34.4688 124.32 33.5344L124.3 28.7821Z" fill="white"/>
<path d="M39.6485 35.042V37.482C39.6485 38.0749 39.4101 38.6436 38.9856 39.0628C38.5611 39.4821 37.9854 39.7176 37.3851 39.7176H36.7837C36.7828 38.7541 37.0494 37.8087 37.5545 36.9843C38.0596 36.16 38.7839 35.4882 39.6485 35.042Z" fill="white"/>
<path d="M41.3881 34.4924V38.1908C41.3881 38.5369 41.319 38.8797 41.1847 39.1994C41.0504 39.5191 40.8536 39.8095 40.6055 40.0539C40.3574 40.2984 40.0629 40.4921 39.7389 40.624C39.4149 40.7558 39.0677 40.8233 38.7173 40.8225H36.9001C36.8217 40.4614 36.7827 40.0931 36.7837 39.7238C36.7828 38.7602 37.0494 37.8148 37.5545 36.9905C38.0596 36.1661 38.7839 35.4943 39.6485 35.0481C40.1904 34.7624 40.7795 34.5742 41.3881 34.4924Z" fill="white"/>
<path d="M36.8612 1.12427H36.7448C35.4235 1.12427 34.1563 1.64225 33.2214 2.56444C32.2866 3.48664 31.7605 4.73763 31.7588 6.04265V6.22789C31.7588 7.53402 32.2841 8.78666 33.2191 9.71023C34.1542 10.6338 35.4224 11.1527 36.7448 11.1527H36.8612C37.5165 11.1535 38.1655 11.0267 38.7712 10.7796C39.3769 10.5325 39.9273 10.1699 40.391 9.71249C40.8547 9.2551 41.2225 8.71191 41.4735 8.114C41.7244 7.51608 41.8536 6.87516 41.8536 6.22789V6.04265C41.8528 5.39592 41.723 4.75569 41.4716 4.15851C41.2203 3.56133 40.8523 3.0189 40.3887 2.56219C39.9251 2.10547 39.375 1.74342 38.7697 1.4967C38.1645 1.24998 37.5159 1.12343 36.8612 1.12427ZM33.8929 4.73321C33.8916 4.56718 33.9403 4.40453 34.0329 4.26595C34.1255 4.12737 34.2578 4.01913 34.4128 3.955C34.5679 3.89088 34.7388 3.87377 34.9037 3.90586C35.0686 3.93794 35.2202 4.01776 35.339 4.13517C35.4579 4.25258 35.5387 4.40226 35.5712 4.56517C35.6037 4.72808 35.5864 4.89685 35.5214 5.05C35.4565 5.20316 35.3469 5.33378 35.2066 5.42523C35.0663 5.51669 34.9017 5.56485 34.7336 5.56359C34.5111 5.56192 34.2983 5.4739 34.141 5.31853C33.9837 5.16317 33.8946 4.95293 33.8929 4.73321ZM38.6396 8.03556L37.1716 9.24918C37.0602 9.3306 36.9253 9.37455 36.7868 9.37455C36.6483 9.37455 36.5134 9.3306 36.402 9.24918L34.9211 8.03556C34.8285 7.95631 34.7623 7.85128 34.7312 7.73423C34.7002 7.61719 34.7056 7.4936 34.7468 7.37966C34.7881 7.26572 34.8632 7.16675 34.9624 7.09572C35.0616 7.02469 35.1802 6.98492 35.3026 6.98162H38.2516C38.3763 6.9801 38.4984 7.01692 38.601 7.08697C38.7035 7.15701 38.7815 7.25683 38.8242 7.3726C38.8668 7.48837 38.8719 7.61436 38.8388 7.73314C38.8058 7.85191 38.7361 7.9576 38.6396 8.03556ZM38.8336 5.56359C38.6657 5.56359 38.5017 5.51434 38.3623 5.42211C38.2228 5.32988 38.1142 5.19882 38.0503 5.04555C37.9864 4.89228 37.97 4.72371 38.0032 4.56122C38.0364 4.39873 38.1177 4.24965 38.2369 4.13288C38.356 4.01612 38.5075 3.93693 38.6723 3.90537C38.8371 3.87381 39.0076 3.89129 39.1623 3.95561C39.317 4.01992 39.4488 4.12816 39.5411 4.26661C39.6334 4.40505 39.682 4.56745 39.6807 4.73321C39.6807 4.8428 39.6588 4.9513 39.6161 5.05247C39.5735 5.15363 39.511 5.24546 39.4322 5.32265C39.3535 5.39984 39.26 5.46087 39.1573 5.50222C39.0545 5.54358 38.9445 5.56443 38.8336 5.56359Z" fill="white"/>
<path d="M39.6487 27.6579V32.0014C40.1618 32.1909 40.6038 32.5314 40.9149 32.9769C41.226 33.4224 41.3912 33.9514 41.3883 34.4925C40.7863 34.5765 40.2039 34.7646 39.6681 35.0482C38.8034 35.4944 38.0791 36.1662 37.574 36.9906C37.0689 37.8149 36.8023 38.7603 36.8032 39.7239C36.8022 40.0932 36.8412 40.4615 36.9196 40.8225H34.4881C34.1379 40.8234 33.7911 40.7559 33.4675 40.6239C33.1438 40.492 32.8498 40.2982 32.6022 40.0536C32.3546 39.8091 32.1584 39.5186 32.0248 39.199C31.8912 38.8793 31.8229 38.5367 31.8237 38.1909V34.4925C31.8245 33.9596 31.9886 33.4394 32.2945 33.0004C32.6004 32.5615 33.0337 32.2243 33.5374 32.0333V27.6579C32.7234 27.488 31.9932 27.0468 31.4692 26.4084C30.9453 25.7699 30.6595 24.973 30.6597 24.1511V15.4833C30.6597 14.5351 31.0401 13.6256 31.7177 12.954C32.3953 12.2823 33.3147 11.9033 34.2747 11.8999H38.8856C39.8478 11.8999 40.7705 12.2774 41.4509 12.9495C42.1313 13.6215 42.5135 14.5329 42.5135 15.4833V24.1511C42.5143 24.9712 42.2303 25.7667 41.7089 26.4049C41.1876 27.0431 40.4603 27.4854 39.6487 27.6579Z" fill="white"/>
<path d="M47.4735 39.7175C47.4821 41.0271 46.9973 42.2931 46.1133 43.2692C45.2294 44.2454 44.0094 44.8619 42.6908 44.9989C41.3722 45.1359 40.0491 44.7836 38.9788 44.0105C37.9085 43.2375 37.1676 42.0989 36.9001 40.8161C36.8217 40.4551 36.7827 40.0868 36.7837 39.7175C36.7828 38.7539 37.0494 37.8085 37.5545 36.9842C38.0596 36.1598 38.7839 35.488 39.6485 35.0418C40.1908 34.7583 40.7799 34.5723 41.3881 34.4925C41.6411 34.4594 41.896 34.4423 42.1512 34.4414C43.5646 34.4465 44.9183 35.0046 45.9158 35.9935C46.9134 36.9824 47.4735 38.3215 47.4735 39.7175Z" fill="#FA4848"/>
</g>
<defs>
<clipPath id="clip0_10_75">
<rect width="131" height="45" fill="white"/>
</clipPath>
</defs>
</svg>
