<svg width="50" height="50" viewBox="0 0 50 50" fill="none" xmlns="http://www.w3.org/2000/svg">
<rect width="50" height="50" rx="10" fill="black"/>
<path d="M26.3837 35.2216V37.2518C26.3837 37.7452 26.1853 38.2184 25.8321 38.5672C25.4789 38.9161 24.9999 39.112 24.5004 39.112H24C23.9993 38.3103 24.2211 37.5237 24.6414 36.8377C25.0616 36.1519 25.6643 35.5929 26.3837 35.2216Z" fill="white"/>
<path d="M26.8312 34.7643V37.8416C26.8312 38.1296 26.7737 38.4148 26.6619 38.6808C26.5502 38.9469 26.3864 39.1885 26.18 39.3918C25.9736 39.5953 25.7285 39.7564 25.4589 39.8662C25.1893 39.9759 24.9004 40.032 24.6089 40.0314H23.0969C23.0316 39.7309 22.9992 39.4245 23 39.1172C22.9993 38.3154 23.2211 37.5288 23.6414 36.8429C24.0616 36.1569 24.6643 35.598 25.3837 35.2267C25.8346 34.989 26.3248 34.8324 26.8312 34.7643Z" fill="white"/>
<path d="M25.2455 7H25.1487C24.0493 7 22.9949 7.43099 22.217 8.19831C21.4392 8.96564 21.0014 10.0065 21 11.0924V11.2465C21 12.3333 21.4371 13.3756 22.2151 14.144C22.9931 14.9125 24.0483 15.3443 25.1487 15.3443H25.2455C25.7908 15.3449 26.3308 15.2394 26.8347 15.0338C27.3387 14.8282 27.7967 14.5265 28.1825 14.1459C28.5683 13.7654 28.8744 13.3134 29.0832 12.8159C29.292 12.3184 29.3995 11.7851 29.3995 11.2465V11.0924C29.3988 10.5543 29.2908 10.0216 29.0816 9.52468C28.8725 9.02779 28.5663 8.57645 28.1806 8.19644C27.7949 7.81642 27.3371 7.51517 26.8335 7.30989C26.3299 7.1046 25.7903 6.9993 25.2455 7ZM22.7757 10.0029C22.7746 9.86471 22.8151 9.72938 22.8922 9.61407C22.9692 9.49877 23.0793 9.4087 23.2083 9.35534C23.3373 9.30199 23.4795 9.28776 23.6167 9.31446C23.754 9.34115 23.8801 9.40756 23.9789 9.50526C24.0779 9.60295 24.1451 9.72749 24.1722 9.86304C24.1992 9.99859 24.1848 10.139 24.1307 10.2665C24.0767 10.3939 23.9855 10.5026 23.8688 10.5787C23.752 10.6548 23.6151 10.6948 23.4752 10.6938C23.2901 10.6924 23.113 10.6192 22.9821 10.4899C22.8513 10.3606 22.7771 10.1857 22.7757 10.0029ZM26.7252 12.7506L25.5038 13.7604C25.4111 13.8282 25.2988 13.8647 25.1836 13.8647C25.0684 13.8647 24.9561 13.8282 24.8634 13.7604L23.6312 12.7506C23.5542 12.6847 23.4991 12.5973 23.4732 12.4999C23.4474 12.4025 23.4519 12.2997 23.4862 12.2049C23.5206 12.1101 23.583 12.0277 23.6656 11.9686C23.7481 11.9095 23.8468 11.8764 23.9487 11.8737H26.4024C26.5062 11.8724 26.6078 11.903 26.6931 11.9613C26.7784 12.0196 26.8433 12.1027 26.8788 12.199C26.9143 12.2953 26.9185 12.4002 26.891 12.499C26.8635 12.5978 26.8055 12.6858 26.7252 12.7506ZM26.8867 10.6938C26.747 10.6938 26.6105 10.6528 26.4945 10.5761C26.3784 10.4993 26.2881 10.3903 26.2349 10.2627C26.1817 10.1352 26.1681 9.99496 26.1957 9.85976C26.2233 9.72455 26.291 9.60051 26.3902 9.50335C26.4893 9.4062 26.6153 9.34031 26.7525 9.31405C26.8896 9.28779 27.0314 9.30233 27.1602 9.35585C27.2889 9.40936 27.3985 9.49942 27.4753 9.61462C27.5521 9.72981 27.5926 9.86494 27.5915 10.0029C27.5915 10.094 27.5733 10.1843 27.5378 10.2685C27.5023 10.3527 27.4503 10.4291 27.3847 10.4933C27.3193 10.5575 27.2415 10.6083 27.156 10.6427C27.0705 10.6771 26.9789 10.6945 26.8867 10.6938Z" fill="white"/>
<path d="M27.4794 29.0776V32.6917C27.9063 32.8493 28.2741 33.1327 28.533 33.5033C28.7918 33.874 28.9293 34.3142 28.9269 34.7644C28.426 34.8343 27.9414 34.9908 27.4955 35.2268C26.7761 35.5981 26.1734 36.157 25.7531 36.843C25.3328 37.5289 25.111 38.3155 25.1118 39.1173C25.1109 39.4245 25.1434 39.731 25.2086 40.0314H23.1855C22.8941 40.0321 22.6055 39.9759 22.3363 39.8661C22.0669 39.7564 21.8223 39.5951 21.6163 39.3916C21.4103 39.1881 21.247 38.9464 21.1358 38.6805C21.0247 38.4145 20.9679 38.1294 20.9685 37.8417V34.7644C20.9692 34.321 21.1057 33.8882 21.3603 33.5229C21.6148 33.1577 21.9753 32.8771 22.3944 32.7182V29.0776C21.7171 28.9362 21.1096 28.5691 20.6736 28.0379C20.2376 27.5067 19.9998 26.8436 20 26.1597V18.9476C20 18.1586 20.3165 17.4019 20.8803 16.8431C21.4441 16.2842 22.2091 15.9688 23.0079 15.966H26.8445C27.6451 15.966 28.4128 16.2801 28.9789 16.8393C29.5451 17.3985 29.8631 18.1568 29.8631 18.9476V26.1597C29.8638 26.8421 29.6274 27.504 29.1936 28.035C28.7599 28.5661 28.1547 28.9341 27.4794 29.0776Z" fill="white"/>
<path d="M29.8946 39.1119C29.9017 40.2016 29.4984 41.255 28.7628 42.0672C28.0274 42.8794 27.0122 43.3924 25.9151 43.5064C24.8179 43.6204 23.717 43.3272 22.8265 42.684C21.9359 42.0408 21.3194 41.0934 21.0969 40.026C21.0316 39.7257 20.9992 39.4192 21 39.1119C20.9993 38.3102 21.2211 37.5235 21.6414 36.8377C22.0616 36.1517 22.6643 35.5927 23.3837 35.2215C23.8349 34.9856 24.3251 34.8308 24.8312 34.7644C25.0417 34.7369 25.2538 34.7226 25.4661 34.7219C26.6421 34.7261 27.7685 35.1905 28.5985 36.0133C29.4285 36.8362 29.8946 37.9504 29.8946 39.1119Z" fill="#FA4848"/>
</svg>
